<svg id="Capa_1" enable-background="new 0 0 512.074 512.074" height="512" viewBox="0 0 512.074 512.074" width="512" xmlns="http://www.w3.org/2000/svg"><path d="m256.417 32.142c-35.103 0-67.665 17.77-86.35 48.846l-147.622 245.506c-9.574 15.925-14.594 34-14.52 52.275.143 35.021 18.733 67.801 48.602 85.926 15.625 9.481 33.702 14.493 52.277 14.493h295.242c18.577 0 36.655-5.011 52.278-14.491 29.88-18.132 48.455-50.92 48.598-85.929.074-18.277-4.946-36.352-14.518-52.272l-147.621-245.508c-18.388-30.585-50.675-48.846-86.366-48.846z" fill="#ff8188"/><path d="m58.425 378.769c-.075-18.275 4.945-36.35 14.52-52.275l147.622-245.506c14.095-23.441 36.087-39.306 61.108-45.689-8.119-2.071-16.586-3.157-25.258-3.157-35.103 0-67.665 17.77-86.35 48.846l-147.622 245.506c-9.574 15.925-14.594 34-14.52 52.275.143 35.021 18.733 67.801 48.602 85.926 15.625 9.481 33.702 14.493 52.277 14.493h50.5c-18.575 0-36.652-5.012-52.277-14.493-29.869-18.126-48.459-50.906-48.602-85.926z" fill="#ff656f"/><path d="m256.415 73.986c19.534-.001 39.063 9.529 50.508 28.565l147.621 245.506c23.637 39.313-4.606 89.288-50.498 89.288h-295.242c-45.864 0-74.149-49.951-50.499-89.288l147.622-245.507c11.455-19.051 30.974-28.564 50.488-28.564" fill="#ff656f"/><path d="m108.805 348.056 147.622-245.506c6.378-10.607 15.259-18.248 25.243-22.946-7.95-3.739-16.601-5.619-25.255-5.619-19.515.001-39.033 9.514-50.488 28.564l-147.622 245.507c-23.649 39.337 4.635 89.288 50.5 89.288h50.5c-45.865 0-74.15-49.951-50.5-89.288z" fill="#ff4756"/><path d="m256.423 164.794c-22.555 0-26.722 21.071-25.47 42.776l3.442 76.815c4.882 24.001 39.188 23.944 44.058 0l3.442-76.815c1.252-23.417-2.909-42.776-25.472-42.776z" fill="#dfebfa"/><circle cx="256.424" cy="356.855" fill="#dfebfa" r="24.759"/><path d="m261.066 284.385-3.442-76.815c-.954-16.543 1.25-32.706 12.333-39.464-3.522-2.128-7.966-3.312-13.535-3.312-22.555 0-26.722 21.071-25.47 42.776l3.442 76.815c3.616 17.781 23.374 22.344 35.356 13.785-4.181-2.991-7.421-7.576-8.684-13.785z" fill="#b1dbfc"/><path d="m258.337 356.855c0-8.762 4.555-16.455 11.423-20.855-3.85-2.467-8.424-3.903-13.336-3.903-13.674 0-24.759 11.085-24.759 24.759s11.085 24.759 24.759 24.759c4.912 0 9.486-1.436 13.336-3.903-6.868-4.402-11.423-12.095-11.423-20.857z" fill="#b1dbfc"/><path d="m256.044 324.971c-17.787 0-32.258 14.471-32.258 32.259 0 17.787 14.471 32.258 32.258 32.258s32.259-14.471 32.259-32.258c0-17.788-14.472-32.259-32.259-32.259zm0 49.517c-9.516 0-17.258-7.742-17.258-17.258 0-9.517 7.742-17.259 17.258-17.259 9.517 0 17.259 7.742 17.259 17.259 0 9.516-7.742 17.258-17.259 17.258z"/><path d="m108.425 487.062h130.119c4.143 0 7.5-3.358 7.5-7.5s-3.357-7.5-7.5-7.5h-130.119c-72.417 0-117.368-79.066-79.932-141.329l147.623-245.506c36.29-60.355 123.657-60.216 159.86 0l147.622 245.507c37.3 62.038-7.252 141.328-79.931 141.328h-130.123c-4.143 0-7.5 3.358-7.5 7.5s3.357 7.5 7.5 7.5h130.123c84.354 0 136.057-92.087 92.786-164.057l-147.622-245.508c-42.123-70.059-143.539-69.902-185.571 0l-147.622 245.507c-43.412 72.203 8.732 164.058 92.787 164.058z"/><path d="m460.593 344.566-147.621-245.506c-25.846-42.984-88.063-42.889-113.852 0l-147.623 245.507c-26.66 44.345 5.18 100.652 56.928 100.652h295.242c51.734 0 83.596-56.296 56.926-100.653zm-396.24 7.73 147.623-245.506c20.008-33.276 68.175-33.206 88.141 0l147.621 245.506c20.641 34.332-3.984 77.923-44.07 77.923h-295.243c-40.062 0-64.726-43.571-44.072-77.923z"/><path d="m233.289 166.693c-7.995 8.469-11.333 22.104-10.208 41.587l3.442 76.815c.411 9.094 10.309 25.144 29.508 25.144 19.037 0 29.115-15.854 29.534-25.144l1.492-33.306c.186-4.138-3.019-7.643-7.156-7.828-4.157-.176-7.644 3.019-7.828 7.157l-1.464 32.67c-1.973 8.439-9.037 11.45-14.578 11.45-5.529 0-12.58-3.011-14.552-11.45l-3.419-76.277c-.854-14.811 1.268-25.365 6.137-30.523 5.723-6.064 18.745-5.631 24.015-.071 4.747 5.007 6.648 15.025 5.812 30.689l-.382 8.51c-.186 4.138 3.018 7.643 7.156 7.829 4.138.166 7.643-3.02 7.828-7.156l.379-8.446c1.081-20.211-2.067-33.476-9.906-41.746-11.172-11.782-34.111-12.297-45.81.096z"/></svg>