<svg id="Layer_1" enable-background="new 0 0 256 256" height="512" viewBox="0 0 256 256" width="512" xmlns="http://www.w3.org/2000/svg"><g><path d="m226.369 26.01s3.41 12.659 13.229 13.246c0 0-13.107 4.525-13.328 14.202 0 0-2.58-13.572-12.932-14.059-.001.001 12.056-1.825 13.031-13.389z" fill="#d6df58"/><path d="m226.268 54.958c-.713 0-1.335-.506-1.472-1.217-.024-.124-2.496-12.417-11.529-12.842-.771-.037-1.388-.651-1.428-1.421-.04-.771.511-1.445 1.273-1.561.441-.069 10.9-1.817 11.761-12.032.061-.725.634-1.301 1.359-1.367.719-.069 1.393.398 1.583 1.101.032.116 3.261 11.626 11.87 12.141.714.043 1.298.584 1.396 1.292s-.319 1.388-.995 1.623c-.121.042-12.124 4.311-12.319 12.819-.018.767-.61 1.396-1.374 1.459-.041.004-.083.005-.125.005zm-7.745-15.729c3.88 1.97 6.234 5.748 7.591 8.878 2.027-4.022 5.945-6.788 8.954-8.428-4.137-1.842-6.787-5.652-8.338-8.724-1.795 4.36-5.274 6.869-8.207 8.274z" fill="#3a312a"/><path d="m204.659 42.991s2.412 8.954 9.357 9.369c0 0-9.271 3.201-9.427 10.045 0 0-1.825-9.6-9.147-9.944-.001 0 8.527-1.291 9.217-9.47z" fill="#d6df58"/><path d="m204.587 63.906c-.713 0-1.336-.507-1.472-1.22-.016-.082-1.705-8.442-7.744-8.726-.771-.037-1.388-.651-1.428-1.421-.04-.771.511-1.445 1.273-1.561.296-.047 7.369-1.243 7.947-8.113.061-.726.635-1.303 1.36-1.368.721-.06 1.392.4 1.583 1.103.037.135 2.249 7.919 7.998 8.263.715.043 1.299.584 1.396 1.293.098.709-.32 1.388-.996 1.622-.081.028-8.287 2.953-8.417 8.662-.018.767-.611 1.397-1.376 1.461-.041.003-.083.005-.124.005zm-4.521-11.528c2.108 1.333 3.525 3.396 4.45 5.281 1.376-2.233 3.517-3.873 5.368-4.974-2.289-1.27-3.887-3.351-4.944-5.225-1.175 2.288-3.018 3.877-4.874 4.918z" fill="#3a312a"/><path d="m204.659 16.333s2.412 8.954 9.357 9.37c0 0-9.271 3.201-9.427 10.045 0 0-1.825-9.6-9.147-9.944-.001 0 8.527-1.291 9.217-9.471z" fill="#d6df58"/><path d="m204.587 37.249c-.713 0-1.336-.507-1.472-1.22-.016-.082-1.705-8.442-7.744-8.726-.771-.037-1.388-.651-1.428-1.421-.04-.771.511-1.445 1.273-1.56.296-.047 7.369-1.243 7.947-8.114.061-.726.635-1.303 1.36-1.368.729-.063 1.391.399 1.582 1.101.021.079 2.229 7.919 7.999 8.265.715.043 1.299.584 1.396 1.293.098.709-.32 1.388-.997 1.622-.081.028-8.287 2.953-8.417 8.662-.018.767-.611 1.397-1.376 1.461-.04.003-.082.005-.123.005zm-4.521-11.528c2.108 1.333 3.525 3.395 4.449 5.281 1.377-2.233 3.518-3.873 5.369-4.974-2.289-1.269-3.887-3.351-4.944-5.225-1.175 2.287-3.018 3.877-4.874 4.918z" fill="#3a312a"/><path d="m76.083 239.512h71.392v-26.788c0-16.327-13.24-29.56-29.576-29.56h-19.54v-12.693c-5.405 3.745-10.997 5.954-16.424 5.954-5.206 0-10.699-2.231-16.081-6.021h-.331v12.759h-19.552c-16.335 0-29.576 13.234-29.576 29.56v26.788h44.913 14.775z" fill="#f8e4c8"/><path d="m147.476 241.012h-71.393c-.829 0-1.5-.671-1.5-1.5s.671-1.5 1.5-1.5h69.892v-25.288c0-15.473-12.595-28.061-28.076-28.061h-19.54c-.829 0-1.5-.671-1.5-1.5v-9.93c-5.134 3.114-10.145 4.691-14.924 4.691-4.703 0-9.71-1.66-14.913-4.938v10.177c0 .829-.671 1.5-1.5 1.5h-19.551c-15.481 0-28.076 12.588-28.076 28.061v25.288h43.413c.829 0 1.5.671 1.5 1.5s-.671 1.5-1.5 1.5h-44.913c-.829 0-1.5-.671-1.5-1.5v-26.788c0-17.127 13.94-31.061 31.076-31.061h18.052v-11.259c0-.829.671-1.5 1.5-1.5h.332c.309 0 .611.096.864.273 5.416 3.813 10.536 5.747 15.217 5.747 4.885 0 10.124-1.914 15.569-5.687.459-.318 1.056-.355 1.55-.096.495.259.804.771.804 1.329v11.193h18.04c17.135 0 31.076 13.934 31.076 31.061v26.788c.001.829-.671 1.5-1.499 1.5z" fill="#3a312a"/><path d="m76.083 239.515h71.393v-26.799c0-16.327-13.241-29.56-29.576-29.56h-4.675l.122.088-20.325 26.943-10.489-7.898-10.489 7.898-20.325-26.943.121-.088h-5.869c-16.335 0-29.576 13.234-29.576 29.56v26.799h44.913z" fill="#ed6e7a"/><path d="m147.476 241.015h-71.393c-.829 0-1.5-.671-1.5-1.5s.671-1.5 1.5-1.5h69.893v-25.299c0-15.473-12.595-28.061-28.076-28.061h-3.739l-19.942 26.435c-.498.661-1.438.793-2.1.295l-9.586-7.219-9.586 7.219c-.662.498-1.601.367-2.1-.295l-19.941-26.434h-4.934c-15.481 0-28.076 12.588-28.076 28.061v25.299h43.413c.829 0 1.5.671 1.5 1.5s-.671 1.5-1.5 1.5h-44.913c-.829 0-1.5-.671-1.5-1.5v-26.799c0-17.127 13.94-31.061 31.076-31.061h5.869c.649 0 1.225.417 1.426 1.035.019.057.034.115.045.174l19.027 25.223 9.292-6.997c.534-.402 1.271-.402 1.805 0l9.292 6.997 19.027-25.222c.012-.058.026-.116.045-.173.201-.618.777-1.036 1.427-1.036h4.675c17.135 0 31.076 13.934 31.076 31.061v26.799c-.002.827-.673 1.498-1.502 1.498z" fill="#3a312a"/><ellipse clip-rule="evenodd" cx="31.15" cy="109.885" fill="#f8e4c8" fill-rule="evenodd" rx="11.637" ry="11.632"/><path d="m31.15 123.017c-7.244 0-13.137-5.891-13.137-13.131 0-7.241 5.894-13.131 13.137-13.131 7.244 0 13.138 5.891 13.138 13.131s-5.894 13.131-13.138 13.131zm0-23.263c-5.59 0-10.137 4.545-10.137 10.131s4.547 10.131 10.137 10.131 10.138-4.545 10.138-10.131-4.548-10.131-10.138-10.131z" fill="#3a312a"/><ellipse clip-rule="evenodd" cx="132.725" cy="109.885" fill="#f8e4c8" fill-rule="evenodd" rx="11.637" ry="11.632"/><path d="m132.725 123.017c-7.244 0-13.138-5.891-13.138-13.131 0-7.241 5.894-13.131 13.138-13.131s13.138 5.891 13.138 13.131c-.001 7.24-5.894 13.131-13.138 13.131zm0-23.263c-5.59 0-10.138 4.545-10.138 10.131s4.548 10.131 10.138 10.131 10.138-4.545 10.138-10.131c-.001-5.586-4.549-10.131-10.138-10.131z" fill="#3a312a"/><path d="m133.527 104.239c0 28.478-27.441 72.189-51.59 72.189-23.052 0-51.59-43.711-51.59-72.189 0-28.477 23.098-51.563 51.59-51.563s51.59 23.086 51.59 51.563z" fill="#f8e4c8"/><path d="m81.937 177.928c-11.055 0-24.391-9.743-35.673-26.062-10.743-15.539-17.417-33.789-17.417-47.627 0-29.259 23.816-53.063 53.09-53.063s53.09 23.804 53.09 53.063c0 13.995-6.514 32.241-17 47.619-11.297 16.567-24.451 26.07-36.09 26.07zm0-123.752c-27.62 0-50.09 22.458-50.09 50.063 0 13.261 6.47 30.856 16.885 45.921 10.722 15.509 23.136 24.768 33.206 24.768 10.475 0 23.04-9.256 33.612-24.76 10.164-14.906 16.478-32.505 16.478-45.929-.001-27.605-22.471-50.063-50.091-50.063z" fill="#3a312a"/><path d="m68.758 103.657c0 2.78-2.254 5.033-5.035 5.033s-5.035-2.253-5.035-5.033c0-2.779 2.254-5.033 5.035-5.033s5.035 2.253 5.035 5.033z" fill="#3a312a"/><path d="m105.187 103.657c0 2.78-2.254 5.033-5.035 5.033s-5.035-2.253-5.035-5.033c0-2.779 2.254-5.033 5.035-5.033s5.035 2.253 5.035 5.033z" fill="#3a312a"/><path d="m62.334 118.619c0 3.579-3.884 6.481-8.674 6.481s-8.674-2.902-8.674-6.481 3.883-6.481 8.674-6.481 8.674 2.902 8.674 6.481z" fill="#f59689"/><path d="m118.889 118.619c0 3.579-3.883 6.481-8.674 6.481s-8.674-2.902-8.674-6.481 3.883-6.481 8.674-6.481 8.674 2.902 8.674 6.481z" fill="#f59689"/><path d="m82.533 41.296c-29.491 0-53.397 22.845-53.397 51.026 0 2.982.539 5.204 1.543 7.981.473 1.309 8.119-2.871 8.77-3.329 3.256-2.291 5.916-5.396 7.905-8.829.822-1.427 1.508-2.88 2.06-4.333 1.76-4.635 6.542-17.533 11.398-16.521 6.511 1.357 13.892 2.123 21.721 2.123s15.21-.767 21.722-2.123c4.856-1.012 9.638 11.886 11.398 16.521.552 1.453 1.237 2.906 2.06 4.333 3.285 5.679 8.833 11.086 15.583 12.069.017-.326.428-.437.736-.548 2.21-.802 1.9-5.574 1.9-7.345-.002-28.181-23.909-51.025-53.399-51.025z" fill="#87796f"/><path d="m31.119 102.034c-.242 0-.458-.027-.645-.086-.571-.18-1.01-.594-1.206-1.135-1.008-2.789-1.632-5.182-1.632-8.491 0-28.963 24.627-52.526 54.897-52.526s54.897 23.562 54.897 52.524l.006.575c.037 2.479.104 7.091-2.894 8.18-.001 0-.012.004-.026.009-.076.107-.167.204-.27.288-.326.268-.749.385-1.167.325-6.332-.923-12.562-5.709-16.665-12.803-.846-1.468-1.574-2.998-2.164-4.551l-.111-.291c-5.286-13.942-8.277-15.568-9.579-15.295-6.864 1.43-14.275 2.155-22.028 2.155s-15.164-.725-22.027-2.155c-1.3-.273-4.293 1.352-9.58 15.295l-.11.29c-.587 1.547-1.315 3.078-2.162 4.549-2.2 3.798-5.083 7.016-8.341 9.308-.062.045-6.339 3.835-9.193 3.835zm103.674-1.742c0 .001 0 .002-.001.003.001-.001.001-.002.001-.003zm-52.26-57.497c-28.616 0-51.897 22.217-51.897 49.526 0 2.545.437 4.496 1.161 6.636 1.766-.483 5.898-2.605 6.793-3.213 2.901-2.042 5.484-4.93 7.466-8.352.766-1.33 1.424-2.715 1.955-4.114l.11-.289c3.454-9.108 7.699-18.27 12.997-17.168 6.662 1.388 13.867 2.091 21.415 2.091 7.547 0 14.753-.704 21.416-2.091 5.283-1.104 9.542 8.058 12.996 17.168l.11.289c.534 1.403 1.192 2.789 1.957 4.116 3.477 6.01 8.566 10.143 13.74 11.201.276-.169.542-.262.692-.314.445-.161 1.056-1.03.993-5.342l-.006-.619c-.001-27.308-23.282-49.525-51.898-49.525z" fill="#3a312a"/><path d="m60.557 175.872h13.186v33.749h-13.186z" fill="#87796f" transform="matrix(.799 -.602 .602 .799 -102.455 79.193)"/><path d="m72.044 211.686c-.455 0-.904-.206-1.199-.597l-20.319-26.947c-.24-.318-.343-.718-.288-1.112s.265-.75.583-.99l10.532-7.934c.66-.498 1.601-.366 2.1.295l20.319 26.948c.24.317.343.717.288 1.111-.055.395-.265.75-.583.99l-10.532 7.933c-.269.205-.586.303-.901.303zm-18.218-28.151 18.513 24.551 8.136-6.128-18.513-24.552z" fill="#3a312a"/><path d="m91.323 175.872h13.186v33.749h-13.186z" fill="#87796f" transform="matrix(-.799 -.602 .602 -.799 60.159 405.614)"/><path d="m93.021 211.686c-.314 0-.631-.098-.901-.302l-10.532-7.933c-.318-.24-.528-.595-.583-.99-.056-.394.048-.794.288-1.111l20.318-26.947c.499-.662 1.44-.793 2.1-.295l10.532 7.934c.318.24.528.596.583.99.056.394-.048.794-.288 1.111l-20.318 26.946c-.295.391-.744.597-1.199.597zm-8.43-9.728 8.136 6.128 18.512-24.551-8.136-6.129z" fill="#3a312a"/><path d="m40.949 241.015c-.829 0-1.5-.671-1.5-1.5v-21.173c0-.829.671-1.5 1.5-1.5s1.5.671 1.5 1.5v21.173c0 .829-.672 1.5-1.5 1.5z" fill="#3a312a"/><path d="m124.117 241.015c-.829 0-1.5-.671-1.5-1.5v-21.173c0-.829.671-1.5 1.5-1.5s1.5.671 1.5 1.5v21.173c0 .829-.672 1.5-1.5 1.5z" fill="#3a312a"/><path d="m122.436 48.12c0 14.636-18.132 26.5-40.5 26.5-22.367 0-40.5-11.864-40.5-26.5 0-14.635 39-31.5 40.5-31.5.5 0 40.5 16.865 40.5 31.5z" fill="#87796f"/><path d="m81.936 76.12c-23.159 0-42-12.561-42-28 0-15.81 39.931-33 42-33 .897 0 11.816 4.832 21.21 10.476 13.795 8.289 20.79 15.867 20.79 22.524 0 15.44-18.841 28-42 28zm-.078-57.945c-4.634 1.375-38.922 17.246-38.922 29.945 0 13.785 17.495 25 39 25s39-11.215 39-25c0-12.454-34.437-28.219-39.078-29.945zm.273-.071" fill="#3a312a"/><circle cx="81.903" cy="139.061" fill="#ef6d7a" r="7.055"/><path d="m81.903 147.616c-4.717 0-8.555-3.838-8.555-8.556 0-4.717 3.838-8.555 8.555-8.555 4.718 0 8.556 3.838 8.556 8.555-.001 4.718-3.838 8.556-8.556 8.556zm0-14.111c-3.063 0-5.555 2.492-5.555 5.555s2.492 5.556 5.555 5.556 5.556-2.492 5.556-5.556c-.001-3.062-2.493-5.555-5.556-5.555z" fill="#3a312a"/><path d="m166.677 222.338h-2.996l-7.265-19.484h5.612c1.465 0 2.776.91 3.288 2.283l4.648 12.466c.856 2.293-.84 4.735-3.287 4.735z" fill="#d5dc57"/><path d="m166.677 223.837h-2.995c-.626 0-1.187-.389-1.405-.976l-7.266-19.484c-.172-.46-.107-.976.173-1.379.28-.404.74-.645 1.232-.645h5.612c2.081 0 3.967 1.31 4.694 3.259l4.648 12.466c.573 1.537.357 3.259-.579 4.607-.935 1.348-2.474 2.152-4.114 2.152zm-1.954-3h1.954c.668 0 1.27-.314 1.65-.863.381-.548.465-1.222.232-1.848l-4.648-12.466c-.292-.782-1.048-1.307-1.883-1.307h-3.452z" fill="#3a312a"/><path d="m145.775 185.619h-14.43l-8.911-21.293h14.43z" fill="#87796f"/><path d="m145.775 187.119h-14.43c-.604 0-1.15-.363-1.384-.921l-8.911-21.292c-.194-.463-.143-.992.135-1.41s.747-.669 1.249-.669h14.43c.605 0 1.15.363 1.384.921l8.911 21.292c.194.463.143.992-.135 1.41s-.747.669-1.249.669zm-13.431-3h11.177l-7.656-18.292h-11.177z" fill="#3a312a"/><path d="m220.667 158.361c0 9.102-7.341 16.489-16.427 16.559v-33.118c9.085.07 16.427 7.457 16.427 16.559z" fill="#d5dc57"/><path d="m204.239 176.42c-.395 0-.775-.156-1.057-.435-.284-.282-.443-.665-.443-1.065v-33.118c0-.4.16-.783.443-1.065.284-.282.633-.428 1.068-.435 9.878.076 17.915 8.177 17.915 18.059s-8.037 17.983-17.915 18.059c-.003 0-.007 0-.011 0zm1.5-33.03v29.943c7.53-.818 13.427-7.242 13.427-14.972s-5.897-14.153-13.427-14.971z" fill="#3a312a"/><path d="m198.406 201.988c-3.221 0-5.833-2.611-5.833-5.833v-75.588c0-3.221 2.612-5.833 5.833-5.833 3.222 0 5.833 2.612 5.833 5.833v75.588c0 3.222-2.611 5.833-5.833 5.833z" fill="#89c4db"/><path d="m198.406 203.488c-4.043 0-7.333-3.29-7.333-7.332v-75.589c0-4.043 3.29-7.333 7.333-7.333s7.333 3.29 7.333 7.333v75.589c0 4.043-3.289 7.332-7.333 7.332zm0-87.254c-2.389 0-4.333 1.943-4.333 4.333v75.589c0 2.389 1.943 4.332 4.333 4.332 2.389 0 4.333-1.943 4.333-4.332v-75.589c0-2.389-1.944-4.333-4.333-4.333z" fill="#3a312a"/><path d="m157.287 136.368-20.423 8.026v27.93l55.71 21.897v-71.72l-23.792 9.35z" fill="#89c4db"/><path d="m192.574 195.721c-.186 0-.372-.034-.549-.104l-55.71-21.898c-.574-.226-.951-.779-.951-1.396v-27.929c0-.617.377-1.17.951-1.396l20.423-8.026c.77-.303 1.642.076 1.945.847s-.076 1.642-.847 1.945l-19.472 7.652v25.885l52.709 20.718v-67.317l-21.743 8.545c-.772.303-1.642-.077-1.945-.847-.303-.771.076-1.642.847-1.945l23.792-9.35c.461-.183.983-.123 1.394.156.41.28.655.744.655 1.24v71.72c0 .496-.245.96-.655 1.24-.252.172-.547.26-.844.26z" fill="#3a312a"/><path d="m128.747 144.394c-7.712 0-13.964 6.252-13.964 13.964 0 7.712 6.252 13.964 13.964 13.964h8.117v-27.928z" fill="#89c4db"/><path d="m136.864 173.822h-8.118c-8.527 0-15.464-6.937-15.464-15.464s6.937-15.464 15.464-15.464h8.118c.829 0 1.5.671 1.5 1.5v27.928c0 .829-.671 1.5-1.5 1.5zm-8.117-27.927c-6.873 0-12.464 5.591-12.464 12.464s5.591 12.464 12.464 12.464h6.618v-24.928z" fill="#3a312a"/><path d="m128.773 189.284 18.126 48.616c.396 1.062 1.41 1.767 2.544 1.767h16.787c1.893 0 3.206-1.889 2.544-3.664l-18.126-48.616c-.396-1.062-1.41-1.767-2.544-1.767h-16.787c-1.893 0-3.205 1.89-2.544 3.664z" fill="#87796f"/><g fill="#3a312a"><path d="m166.23 241.167h-16.787c-1.751 0-3.338-1.102-3.95-2.743l-18.126-48.616c-.483-1.293-.3-2.743.487-3.876.788-1.134 2.082-1.811 3.462-1.811h16.787c1.751 0 3.338 1.102 3.95 2.743l18.126 48.616c.482 1.294.3 2.743-.487 3.876-.787 1.134-2.082 1.811-3.462 1.811zm-34.913-54.047c-.404 0-.768.19-.998.522-.23.331-.282.739-.141 1.118l18.126 48.616c.176.473.634.79 1.139.79h16.787c.404 0 .768-.19.998-.522s.282-.739.141-1.118l-18.125-48.616c-.177-.473-.634-.79-1.139-.79z"/><path d="m239.604 159.514h-11.521c-.829 0-1.5-.671-1.5-1.5s.671-1.5 1.5-1.5h11.521c.829 0 1.5.671 1.5 1.5s-.671 1.5-1.5 1.5z"/><path d="m226.013 142.789c-.538 0-1.058-.29-1.327-.799-.388-.732-.108-1.64.624-2.027l10.309-5.458c.733-.389 1.64-.108 2.027.624.388.732.108 1.64-.624 2.027l-10.309 5.458c-.224.119-.464.175-.7.175z"/><path d="m218.229 126.164c-.352 0-.704-.123-.989-.373-.622-.547-.684-1.495-.138-2.117l8.717-9.929c.547-.622 1.495-.684 2.117-.138.623.547.684 1.495.138 2.117l-8.717 9.929c-.297.338-.712.511-1.128.511z"/><path d="m236.318 181.673c-.236 0-.477-.056-.7-.175l-10.309-5.458c-.732-.388-1.012-1.295-.624-2.027.387-.732 1.294-1.013 2.027-.624l10.309 5.457c.732.388 1.012 1.295.624 2.027-.269.51-.789.8-1.327.8z"/><path d="m226.947 202.769c-.417 0-.831-.173-1.128-.51l-8.717-9.929c-.546-.623-.485-1.57.138-2.117.623-.546 1.57-.484 2.117.138l8.717 9.929c.546.623.485 1.57-.138 2.117-.285.249-.638.372-.989.372z"/></g><path d="m205.739 143.39v29.943c7.53-.818 13.428-7.242 13.428-14.972 0-7.729-5.898-14.153-13.428-14.971z" fill="#b9c239"/></g></svg>