<svg height="488pt" viewBox="-59 0 488 488" width="488pt" xmlns="http://www.w3.org/2000/svg"><path d="m362.339844 151.808594v213.679687h-197.078125v-261.449219h149.296875v47.769532zm-50.511719 47.222656c.078125-.054688.121094-.140625.121094-.230469 0-.09375-.042969-.179687-.121094-.230469l-10.777344-8.082031c-.117187-.078125-.15625-.234375-.089843-.359375l6.21875-11.957031c.042968-.082031.042968-.179687.003906-.261719-.039063-.082031-.113282-.140625-.203125-.160156l-13.230469-2.570312c-.140625-.023438-.238281-.148438-.230469-.289063l.421875-13.5c0-.089844-.039062-.175781-.109375-.234375-.070312-.054688-.164062-.070312-.253906-.046875l-13.046875 3.410156c-.136719.039063-.285156-.027343-.339844-.160156l-5.480468-12.339844c-.039063-.082031-.113282-.140625-.199219-.160156-.089844-.023437-.183594 0-.25.0625l-10.273438 8.738281c-.105469.101563-.269531.101563-.378906 0l-10.269531-8.738281c-.070313-.0625-.160156-.085937-.25-.0625-.089844.019531-.164063.078125-.199219.160156l-5.480469 12.339844c-.058594.132813-.203125.199219-.339844.160156l-13.050781-3.410156c-.085937-.023437-.179687-.003906-.25.050781-.070312.054688-.113281.140625-.109375.230469l.417969 13.5c.007813.140625-.089844.265625-.226563.289063l-13.230468 2.570312c-.089844.019531-.167969.078125-.207032.160156-.039062.082032-.035156.179688.007813.261719l6.21875 11.957031c.0625.125.027344.28125-.089844.359375l-10.78125 8.082031c-.074219.050782-.121093.136719-.121093.230469 0 .089844.046874.175781.121093.230469l10.78125 8.109375c.117188.078125.152344.234375.089844.359375l-6.21875 11.960938c-.042969.082031-.046875.175781-.007813.257812.039063.082031.117188.144531.207032.160156l13.230468 2.570313c.136719.027343.234376.148437.226563.289062l-.417969 13.5c-.003906.089844.039063.175781.109375.230469.070313.058594.164063.074219.25.050781l6.742188-1.757812.007812.019531-14.089843 34.207031c-.429688 1.039063-.214844 2.230469.550781 3.054688.761719.820312 1.933593 1.125 3 .777343l11.050781-3.582031c1.367188-.441406 2.847656.191407 3.480469 1.480469l4.839843 9.929688c.496094 1.019531 1.546876 1.648437 2.683594 1.609374 1.132813-.039062 2.136719-.738281 2.566406-1.789062l9.089844-22.25.046875-.019531 8.761719 21.410156c.429688 1.050781 1.433594 1.753906 2.570312 1.789063 1.132813.035156 2.183594-.597657 2.679688-1.617188l4.851562-9.921875c.625-1.289063 2.105469-1.921875 3.46875-1.480469l11.050782 3.582032c1.066406.34375 2.238281.039062 3-.785157.761718-.824219.976562-2.019531.550781-3.054687l-13.660156-33.160156.019531-.089844 6.296875 1.648437c.089844.027344.183594.007813.253906-.046875.070313-.054687.109375-.140625.109375-.234375l-.421875-13.5c-.007812-.140625.089844-.261719.230469-.289062l13.230469-2.570313c.089843-.015625.164062-.078125.203125-.160156.039062-.082031.039062-.175781-.003906-.257812l-6.21875-11.960938c-.066407-.125-.027344-.28125.089843-.359375zm0 0" fill="#00acea"/><path d="m362.339844 151.808594h-47.78125v-47.769532zm0 0" fill="#fedb41"/><path d="m311.828125 198.570312c.078125.050782.121094.136719.121094.230469 0 .089844-.042969.175781-.121094.230469l-10.777344 8.109375c-.117187.078125-.15625.234375-.089843.359375l6.21875 11.960938c.042968.082031.042968.175781.003906.257812-.039063.082031-.113282.144531-.203125.160156l-13.230469 2.570313c-.140625.027343-.238281.148437-.230469.289062l.421875 13.5c0 .09375-.039062.179688-.109375.234375-.070312.054688-.164062.074219-.253906.046875l-6.296875-1.648437-6.75-1.761719c-.136719-.039063-.285156.03125-.339844.160156l-5.480468 12.339844c-.039063.082031-.113282.140625-.203126.160156-.085937.019531-.179687-.003906-.246093-.058593l-10.273438-8.742188c-.105469-.097656-.269531-.097656-.378906 0l-6.160156 5.242188-4.109375 3.5c-.070313.054687-.160156.078124-.25.058593-.085938-.019531-.160156-.078125-.199219-.160156l-5.480469-12.339844c-.058594-.128906-.203125-.199219-.339844-.160156l-6.308593 1.652344-6.742188 1.757812c-.085937.023438-.179687.007813-.25-.050781-.070312-.054688-.113281-.140625-.109375-.230469l.417969-13.5c.007813-.140625-.089844-.261719-.226563-.289062l-13.230468-2.570313c-.089844-.015625-.167969-.078125-.207032-.160156-.039062-.082031-.035156-.175781.007813-.257812l6.21875-11.960938c.0625-.125.027344-.28125-.089844-.359375l-10.78125-8.109375c-.074219-.054688-.121093-.140625-.121093-.230469 0-.09375.046874-.179687.121093-.230469l10.78125-8.082031c.117188-.078125.152344-.234375.089844-.359375l-6.21875-11.957031c-.042969-.082031-.046875-.179687-.007813-.261719.039063-.082031.117188-.140625.207032-.160156l13.230468-2.570312c.136719-.023438.234376-.148438.226563-.289063l-.417969-13.5c-.003906-.089844.039063-.175781.109375-.230469.070313-.054687.164063-.074218.25-.050781l13.050781 3.410156c.136719.039063.28125-.027343.339844-.160156l5.480469-12.339844c.035156-.082031.109375-.140625.199219-.160156.089844-.023437.179687 0 .25.0625l10.269531 8.738281c.109375.101563.273437.101563.378906 0l10.273438-8.738281c.066406-.0625.160156-.085937.25-.0625.085937.019531.160156.078125.199219.160156l5.480468 12.339844c.054688.132813.203125.199219.339844.160156l13.046875-3.410156c.089844-.023437.183594-.007813.253906.046875.070313.058594.109375.144531.109375.234375l-.421875 13.5c-.007812.140625.089844.265625.230469.289063l13.230469 2.570312c.089843.019531.164062.078125.203125.160156.039062.082032.039062.179688-.003906.261719l-6.21875 11.957031c-.066407.125-.027344.28125.089843.359375zm-28.90625.238282c-.007813-10.558594-8.570313-19.113282-19.128906-19.109375-10.558594.003906-19.113281 8.566406-19.113281 19.125.003906 10.558593 8.5625 19.117187 19.121093 19.117187 10.5625 0 19.125-8.566406 19.121094-19.132812zm0 0" fill="#00efd1"/><path d="m300.921875 268.121094c.425781 1.035156.210937 2.230468-.550781 3.054687-.761719.824219-1.933594 1.128907-3 .785157l-11.050782-3.582032c-1.363281-.441406-2.84375.191406-3.46875 1.480469l-4.851562 9.921875c-.496094 1.019531-1.546875 1.652344-2.679688 1.617188-1.136718-.035157-2.140624-.738282-2.570312-1.789063l-8.761719-21.410156-6.539062-15.988281 6.160156-5.242188c.109375-.097656.273437-.097656.378906 0l10.273438 8.742188c.066406.054687.160156.078124.246093.058593.089844-.019531.164063-.078125.203126-.160156l5.480468-12.339844c.054688-.128906.203125-.199219.339844-.160156l6.75 1.761719-.019531.089844zm0 0" fill="#fedb41"/><path d="m279.941406 385.378906v54.25c0 22.09375-17.910156 40-40 40h-192.28125c-22.089844 0-40-17.90625-40-40v-54.25zm-115.191406 47.121094c-.003906-11.566406-9.378906-20.941406-20.945312-20.941406-11.566407.003906-20.945313 9.378906-20.945313 20.945312s9.375 20.941406 20.941406 20.945313c11.570313 0 20.949219-9.378907 20.949219-20.949219zm0 0" fill="#00acea"/><path d="m279.941406 365.75v19.628906h-272.28125v-298.46875h272.28125v17.128906h-114.679687v261.449219h114.679687zm0 0" fill="#00efd1"/><path d="m279.941406 48.371094v38.539062h-272.28125v-38.539062c0-22.09375 17.910156-40 40-40h192.28125c22.089844 0 40 17.90625 40 40zm0 0" fill="#00acea"/><path d="m263.800781 179.691406c10.5625-.003906 19.128907 8.558594 19.128907 19.121094 0 10.566406-8.5625 19.128906-19.125 19.128906-10.566407-.003906-19.128907-8.566406-19.125-19.132812 0-10.558594 8.5625-19.117188 19.121093-19.117188zm0 0" fill="#fedb41"/><path d="m257.449219 242.210938 6.539062 15.988281-.046875.019531-9.089844 22.25c-.429687 1.050781-1.433593 1.75-2.566406 1.789062-1.136718.039063-2.1875-.589843-2.683594-1.609374l-4.839843-9.929688c-.632813-1.289062-2.113281-1.921875-3.480469-1.480469l-11.050781 3.582031c-1.066407.347657-2.238281.042969-3-.777343-.765625-.824219-.980469-2.015625-.550781-3.054688l14.089843-34.207031-.007812-.019531 6.308593-1.652344c.136719-.039063.28125.03125.339844.160156l5.480469 12.339844c.039063.082031.113281.140625.199219.160156.089844.019531.179687-.003906.25-.058593zm0 0" fill="#f4b844"/><path d="m143.800781 411.558594c11.566407 0 20.949219 9.375 20.949219 20.945312 0 11.566406-9.378906 20.945313-20.945312 20.945313-11.570313 0-20.949219-9.378907-20.945313-20.949219.003906-11.5625 9.378906-20.9375 20.941406-20.941406zm0 0" fill="#00efd1"/><g fill="#083863"><path d="m47.660156 488h192.28125c26.464844 0 48.058594-21.898438 48.058594-48.371094v-66.628906h74.339844c2.035156.097656 4.015625-.65625 5.472656-2.082031 1.453125-1.425781 2.246094-3.390625 2.1875-5.429688v-213.679687c.0625-2.101563-.722656-4.140625-2.175781-5.65625l-47.691407-47.789063c-1.460937-1.503906-3.472656-2.359375-5.574218-2.363281h-26.558594v-47.628906c0-26.472656-21.59375-48.371094-48.058594-48.371094h-192.28125c-26.46875 0-47.660156 21.898438-47.660156 48.371094v391.257812c0 26.472656 21.191406 48.371094 47.660156 48.371094zm275.339844-364.648438 20.023438 20.648438h-20.023438zm-16-11.351562v39.808594c0 4.421875 3.140625 8.191406 7.558594 8.191406h39.441406v197h-181v-245zm-291-63.628906c0-17.644532 14.015625-32.371094 31.660156-32.371094h192.28125c17.644532 0 32.058594 14.726562 32.058594 32.371094v30.628906h-256zm0 46.628906h256v1h-106.738281c-4.480469 0-8.140625 3.566406-8.261719 8.039062v261.449219c0 4.421875 3.84375 7.511719 8.261719 7.511719h106.738281v4h-256zm0 298h256v46.628906c0 17.644532-14.414062 32.371094-32.058594 32.371094h-192.28125c-17.644531 0-31.660156-14.726562-31.660156-32.371094zm0 0"/><path d="m177.839844 37h-68.070313c-4.417969 0-8 3.582031-8 8s3.582031 8 8 8h68.070313c4.417968 0 8-3.582031 8-8s-3.582032-8-8-8zm0 0"/><path d="m143.800781 461.449219c15.984375.003906 28.945313-12.953125 28.949219-28.9375.003906-15.988281-12.953125-28.949219-28.941406-28.953125-15.984375 0-28.945313 12.957031-28.949219 28.941406.019531 15.976562 12.964844 28.925781 28.941406 28.949219zm0-41.890625c7.148438 0 12.949219 5.792968 12.949219 12.945312 0 7.148438-5.796875 12.945313-12.945312 12.945313-7.152344 0-12.949219-5.796875-12.945313-12.949219.011719-7.140625 5.796875-12.929688 12.941406-12.941406zm0 0"/><path d="m200.78125 338h105.128906c4.417969 0 8-3.582031 8-8s-3.582031-8-8-8h-105.128906c-4.417969 0-8 3.582031-8 8s3.582031 8 8 8zm0 0"/><path d="m200.78125 314h66.6875c4.417969 0 8-3.582031 8-8s-3.582031-8-8-8h-66.6875c-4.417969 0-8 3.582031-8 8s3.582031 8 8 8zm0 0"/><path d="m211 205.449219 5.527344 4.160156-3.175782 6.113281c-1.214843 2.300782-1.28125 5.039063-.175781 7.394532 1.105469 2.355468 3.253907 4.054687 5.800781 4.589843l.121094.027344 6.785156 1.316406-.214843 6.921875c-.085938 2.605469 1.0625 5.101563 3.09375 6.734375.023437.019531.050781.03125.074219.050781l-9.558594 23.199219c-1.605469 3.921875-.792969 8.417969 2.089844 11.523438 2.878906 3.109375 7.300781 4.257812 11.332031 2.949219l6.820312-2.207032 2.898438 5.941406c1.828125 3.730469 5.617187 6.09375 9.769531 6.097657.125 0 .246094 0 .367188-.007813 4.28125-.148437 8.082031-2.792968 9.707031-6.757812l1.71875-4.210938 1.371093 3.351563c1.625 3.96875 5.429688 6.613281 9.714844 6.757812h.355469c4.15625-.003906 7.945313-2.371093 9.773437-6.105469l2.898438-5.933593 6.84375 2.21875c4.03125 1.292969 8.445312.132812 11.320312-2.980469 2.871094-3.109375 3.675782-7.605469 2.066407-11.519531l-9.285157-22.535157c1.914063-1.636718 2.980469-4.054687 2.902344-6.574218l-.21875-6.914063 6.789063-1.316406.128906-.027344c2.535156-.535156 4.671875-2.226562 5.78125-4.570312 1.105469-2.34375 1.054687-5.070313-.140625-7.367188l-3.199219-6.160156 5.527344-4.160156c2.101563-1.558594 3.34375-4.015625 3.347656-6.632813.003907-2.617187-1.226562-5.082031-3.320312-6.648437l-5.550781-4.15625 3.171874-6.101563c1.214844-2.300781 1.28125-5.035156.179688-7.390625-1.105469-2.355469-3.25-4.058593-5.796875-4.59375l-.128906-.027343-6.785157-1.320313.214844-6.914063c.089844-2.613281-1.058594-5.117187-3.105468-6.753906-2.042969-1.632812-4.738282-2.203125-7.269532-1.539062l-6.714844 1.753906-2.824218-6.351562c-.023438-.054688-.046875-.109376-.074219-.164063-1.097656-2.335937-3.222656-4.027344-5.746094-4.570313-2.527343-.546874-5.160156.117188-7.125 1.789063l-5.273437 4.488281-5.214844-4.433594c-1.957031-1.703124-4.605469-2.390624-7.144531-1.851562-2.542969.535156-4.683594 2.230469-5.789063 4.578125-.027344.054687-.050781.109375-.074218.164063l-2.820313 6.351562-6.699219-1.75c-2.53125-.667969-5.230468-.101562-7.28125 1.53125-2.046875 1.632812-3.203125 4.136719-3.113281 6.753906l.214844 6.917969-6.785157 1.320313-.121093.027343c-2.539063.53125-4.679688 2.222657-5.789063 4.566407s-1.058594 5.070312.136719 7.371093l3.199219 6.148438-5.570313 4.175781c-2.085937 1.570312-3.308593 4.03125-3.300781 6.640625.007812 2.613281 1.246094 5.066406 3.34375 6.621094zm40.773438 61.410156c-2.503907-4.625-7.941407-6.820313-12.957032-5.230469l-.519531.167969 6.269531-15.222656 1.015625 2.28125c.023438.054687.046875.109375.074219.164062 1.078125 2.304688 3.15625 3.980469 5.636719 4.542969.617187.144531 1.246093.214844 1.882812.214844.121094 0 .238281-.007813.359375-.015625l1.792969 4.386719zm37.011718-6.089844c-5.015625-1.613281-10.46875.59375-12.953125 5.242188l-5.445312-13.3125c2.003906 1.132812 4.386719 1.382812 6.582031.683593 2.195312-.699218 3.996094-2.28125 4.976562-4.363281.027344-.054687.050782-.109375.074219-.164062l1.203125-2.699219 6.085938 14.78125zm-57.507812-63.824219c3.214844-2.324218 4.316406-6.613281 2.617187-10.199218-.050781-.101563-.101562-.207032-.15625-.3125l-1.457031-2.796875 3.101562-.601563.15625-.03125c3.921876-.859375 6.671876-4.390625 6.542969-8.402344l-.101562-3.140624 3.035156.792968c3.890625 1.054688 7.972656-.859375 9.65625-4.523437l.054687-.121094 1.289063-2.910156 2.371094 2.019531c3.105469 2.699219 7.722656 2.699219 10.828125 0l2.378906-2.023438 1.324219 2.988282c1.664062 3.691406 5.761719 5.625 9.671875 4.566406l3.039062-.796875-.101562 3.148437c-.128906 4.003907 2.613281 7.53125 6.527344 8.398438l.171874.035156 3.09375.597656-1.457031 2.800782c-.0625.117187-.121093.238281-.175781.355468-1.660156 3.578126-.558594 7.832032 2.632812 10.152344l2.492188 1.867188-2.5 1.878906c-3.183594 2.320312-4.285156 6.570312-2.625 10.140625.054688.121094.117188.242187.175781.359375l1.457031 2.8125-3.097656.601562-.144531.027344c-3.929687.851563-6.6875 4.386719-6.558594 8.40625l.101563 3.136719-3.039063-.789063c-3.9375-1.058593-8.058593.914063-9.707031 4.644532l-1.289062 2.90625-2.375-2.019532c-3.105469-2.707031-7.726563-2.707031-10.832032 0l-2.367187 2.015626-1.292969-2.90625c-.019531-.046876-.039062-.089844-.0625-.132813-1.683594-3.660156-5.761719-5.566406-9.648438-4.511719l-3.03125.792969.097657-3.144531c.132812-4.019532-2.632813-7.558594-6.566407-8.40625-.042968-.007813-.089843-.015625-.132812-.023438l-3.101562-.601562 1.460937-2.804688c.050781-.101562.097656-.207031.152344-.3125 1.695312-3.578125.601562-7.859375-2.605469-10.1875l-2.5-1.878906zm0 0"/><path d="m263.800781 225.941406c14.980469 0 27.125-12.140625 27.128907-27.121094.003906-14.980468-12.140626-27.128906-27.121094-27.128906-14.980469-.003906-27.125 12.136719-27.128906 27.117188.015624 14.976562 12.144531 27.113281 27.121093 27.132812zm0-38.25c6.144531-.003906 11.128907 4.976563 11.128907 11.121094s-4.980469 11.128906-11.125 11.128906c-6.148438-.003906-11.128907-4.984375-11.125-11.132812.007812-6.136719 4.980468-11.113282 11.121093-11.117188zm0 0"/></g></svg>