<svg id="Capa_1" enable-background="new 0 0 511.999 511.999" height="512" viewBox="0 0 511.999 511.999" width="512" xmlns="http://www.w3.org/2000/svg"><g><circle cx="411.614" cy="460.661" fill="#756e78" r="43.838"/><circle cx="171.838" cy="460.661" fill="#756e78" r="43.838"/><path d="m418.782 417.407c4.226 6.74 6.67 14.712 6.67 23.255 0 24.211-19.627 43.838-43.838 43.838-2.441 0-4.836-.2-7.168-.583 7.751 12.363 21.5 20.584 37.168 20.584 24.211 0 43.838-19.627 43.838-43.838 0-21.772-15.869-39.835-36.67-43.256z" fill="#544f57"/><path d="m179.006 417.407c4.226 6.74 6.67 14.712 6.67 23.255 0 24.211-19.627 43.838-43.838 43.838-2.441 0-4.836-.2-7.168-.583 7.751 12.363 21.5 20.583 37.168 20.583 24.211 0 43.838-19.627 43.838-43.838 0-21.771-15.869-39.834-36.67-43.255z" fill="#544f57"/><g fill="#efe7e4"><path d="m487.857 113.682h-351.194c-3.839 0-6.951-3.112-6.951-6.951v-12.908c0-3.839 3.112-6.951 6.951-6.951h351.192c3.839 0 6.952 3.112 6.952 6.952v12.907c0 3.839-3.112 6.951-6.95 6.951z"/><path d="m487.857 192.998h-340.85c-3.839 0-6.951-3.112-6.951-6.951v-12.908c0-3.839 3.112-6.951 6.951-6.951h340.849c3.839 0 6.952 3.112 6.952 6.952v12.907c-.001 3.839-3.113 6.951-6.951 6.951z"/><circle cx="411.614" cy="460.661" r="16.784"/><circle cx="171.838" cy="460.661" r="16.786"/></g><path d="m224.281 335.964h1.098c12.273-13.853 32.986-17.648 49.638-8.034l12.048 6.956c2.019-.787 3.875-1.988 5.437-3.55l47.038-47.038c-74.42 11.787-135.502 21.461-149.751 23.718l23.32 23.32c2.962 2.963 6.981 4.628 11.172 4.628z" fill="#dad0cb"/><path d="m97.292 59.557-72.867-19.524c-5.202-1.394-8.289-6.741-6.896-11.943l3.58-13.36c1.394-5.202 6.741-8.289 11.943-6.896l72.867 19.525z" fill="#e28086"/><path d="m177.78 166.188h-26.181l-8.316-52.506h26.18z" fill="#dad0cb"/><path d="m480.748 113.682h-25.858v52.507h25.858c0-28.592 0-52.481 0-52.507z" fill="#dad0cb"/><path d="m136.038 67.941 2.999 18.932h26.18l-3.77-23.805c-1.706-10.772-9.593-19.531-20.128-22.354l-36.367-9.745-6.692 24.977 35.557 9.527c1.163.312 2.033 1.279 2.221 2.468z" fill="#dad0cb"/><path d="m163.879 312.119 324.901-51.459c3.342-.529 5.818-3.389 5.863-6.773l.161-12.131c.057-4.309-3.781-7.631-8.037-6.957l-324.998 51.474c-3.363.533-5.845 3.423-5.863 6.828l-.064 12.116c-.023 4.288 3.803 7.573 8.037 6.902z" fill="#efe7e4"/><path d="m409.473 405.558-134.457-77.628c-19.024-10.984-43.35-4.466-54.334 14.559l-43.131 74.704c11.814 1.538 22.151 7.779 29.07 16.784l45.349-78.546c.489-.847 1.573-1.138 2.42-.649l127.53 73.629c7.809-7.194 18.238-11.588 29.693-11.588 3.796 0 7.478.483 10.99 1.389-3.225-5.139-7.693-9.515-13.13-12.654z" fill="#efe7e4"/><path d="m480.748 235.753v-42.755h-25.858v46.851z" fill="#dad0cb"/><path d="m195.942 280.861-13.916-87.863h-26.181l14.557 91.908z" fill="#dad0cb"/><path d="" fill="#9dc6fb"/><path d="m387.33 460.661c0 13.39 10.894 24.283 24.283 24.283 13.39 0 24.284-10.894 24.284-24.283 0-13.39-10.894-24.284-24.284-24.284-13.389.001-24.283 10.894-24.283 24.284zm33.567 0c0 5.119-4.165 9.283-9.284 9.283s-9.283-4.165-9.283-9.283c0-5.119 4.165-9.284 9.283-9.284 5.119.001 9.284 4.165 9.284 9.284z"/><path d="m171.838 436.375c-13.392 0-24.286 10.895-24.286 24.287s10.895 24.286 24.286 24.286 24.287-10.895 24.287-24.286-10.895-24.287-24.287-24.287zm0 33.573c-5.121 0-9.286-4.166-9.286-9.286s4.166-9.287 9.286-9.287 9.287 4.166 9.287 9.287-4.166 9.286-9.287 9.286z"/><path d="m22.484 47.277 65.623 17.583-.824 3.076c-1.276 4.764 2.32 9.443 7.25 9.443 3.311 0 6.342-2.21 7.24-5.561l1.792-6.687 25.52 6.838 1.393 8.796c-4.881 2.322-8.263 7.302-8.263 13.057v12.908c0 7.672 6.104 14.451 14.665 14.451l6.034 38.097c-5.98 1.77-10.355 7.313-10.355 13.86v12.908c0 7.968 6.482 14.45 14.45 14.45h2.433l12.382 78.174-1.226.194c-7.025 1.113-12.152 7.083-12.19 14.197l-.063 12.115c-.047 8.903 7.9 15.743 16.711 14.35 36.579-5.793 6.812-1.079 22.134-3.506l20.617 20.617c1.593 1.593 3.376 2.926 5.297 3.98l-13.189 22.845c-2.071 3.587-.842 8.174 2.745 10.245 3.586 2.071 8.174.842 10.245-2.745l14.275-24.726c8.919-15.447 28.639-20.733 44.088-11.813 65.616 37.883 108.713 62.766 131.156 75.723-7.836 1.422-15.059 4.629-21.23 9.183l-123.054-71.043c-4.427-2.555-10.108-1.033-12.665 3.394l-40.365 69.914c-4.702-4.011-10.135-7.189-16.067-9.306l6.076-10.524c2.071-3.587.842-8.174-2.745-10.245-3.587-2.072-8.174-.843-10.245 2.745l-8.708 15.083c-29.038-.876-52.921 22.489-52.921 51.314 0 28.308 23.03 51.338 51.338 51.338s51.338-23.03 51.338-51.338c0-9.907-2.821-19.167-7.701-27.02l40.126-69.5 114.623 66.178c-6.252 8.506-9.949 19-9.949 30.342 0 28.308 23.03 51.338 51.338 51.338s51.338-23.03 51.338-51.338c0-22.839-14.991-42.242-35.65-48.887-3.735-5.162-8.555-9.522-14.078-12.711l-112.748-65.095 42.643-42.644 90.518-14.336c4.091-.648 6.882-4.49 6.234-8.581s-4.492-6.882-8.581-6.234c-164.379 26.035 20.284-3.213-267.944 42.438l.058-11.002c65.805-10.422 249.911-39.582 323.894-51.299l-.146 11.016-19 3.009c-4.091.648-6.882 4.49-6.234 8.581s4.488 6.881 8.581 6.234l19.456-3.082c6.969-1.104 12.096-7.026 12.189-14.082l.161-12.13c.105-7.953-6.213-14.428-14.056-14.637v-26.728c7.788-.208 14.06-6.608 14.06-14.445v-12.906c0-7.837-6.272-14.238-14.06-14.447v-37.517c7.788-.208 14.06-6.608 14.06-14.445v-12.906c0-7.969-6.483-14.452-14.452-14.452h-263.068c-4.142 0-7.5 3.358-7.5 7.5s3.358 7.5 7.5 7.5h262.52v11.809c-65.025 0-289.733 0-350.094 0v-11.809h52.575c4.142 0 7.5-3.358 7.5-7.5s-3.358-7.5-7.5-7.5h-18.165l-2.768-17.478c-2.167-13.682-12.213-24.84-25.594-28.425l-29.122-7.803 1.792-6.688c1.072-4.001-1.302-8.113-5.303-9.186-4-1.07-8.114 1.302-9.186 5.303l-.824 3.076-65.625-17.583c-9.19-2.46-18.667 3.012-21.129 12.2l-3.58 13.359c-2.467 9.21 2.988 18.66 12.199 21.129zm149.354 449.722c-20.037 0-36.338-16.301-36.338-36.338s16.301-36.338 36.338-36.338 36.338 16.301 36.338 36.338-16.301 36.338-36.338 36.338zm276.114-36.338c0 20.037-16.301 36.338-36.338 36.338s-36.338-16.301-36.338-36.338 16.301-36.338 36.338-36.338c20.036 0 36.338 16.301 36.338 36.338zm-160.928-134.459-8.257-4.767c-18.613-10.747-41.572-7.356-56.362 6.817-1.501-.345-2.878-1.103-3.993-2.219l-12.911-12.911 112.415-17.805c-40.297 40.295-28.688 28.803-30.892 30.885zm-123.966-205.02 5.94 37.506h-10.993l-5.94-37.506zm56.924 0 4.997 37.506h-40.794l-5.94-37.506zm56.901 0 3.952 37.506h-40.723l-4.997-37.506zm56.873 0 2.786 37.506h-40.625l-3.952-37.506zm56.839 0 1.478 37.506h-40.489l-2.786-37.506zm71.795 37.506v-37.506h10.857v37.506zm-15 0h-40.306l-1.478-37.506h41.784zm-299.834 15h339.751v11.809c-386.7 0 47.028 0-339.751 0zm325.692 55.659-10.857 1.72v-30.57h10.857zm-62.986 9.976-1.53-38.826h38.658v32.945zm-52.076 8.248-3.497-47.074h39.031l1.623 41.188zm-52.034 8.241-5.828-55.315h39.324l3.672 49.428zm-52.002 8.236-8.468-63.551h39.558l6.076 57.665zm-51.974 8.232-11.37-71.783h39.744l8.78 65.898zm-37.549-71.783h10.993l11.741 74.129-10.724 1.698zm-25.249-152.538c7.665 2.054 13.419 8.445 14.661 16.283l2.397 15.131h-10.993l-1.997-12.607c-.651-4.109-3.669-7.46-7.688-8.537l-28.312-7.586 2.81-10.488zm-114.604-17.929 3.58-13.359c.321-1.2 1.561-1.914 2.757-1.592l65.623 17.584-4.745 17.709-65.622-17.584c-1.196-.32-1.918-1.546-1.593-2.758z"/></g></svg>