<svg id="Layer_1" enable-background="new 0 0 256 256" height="512" viewBox="0 0 256 256" width="512" xmlns="http://www.w3.org/2000/svg"><g><path d="m16.564 94.454v134.388c0 5.972 4.841 10.813 10.813 10.813h143.059c5.972 0 10.813-4.841 10.813-10.813v-176.417c0-5.972-4.841-10.813-10.813-10.813h-143.059c-5.972 0-10.813 4.841-10.813 10.813v29.066z" fill="#f6e2c6"/><path d="m170.436 241.154h-143.059c-6.789 0-12.313-5.523-12.313-12.312v-134.388c0-.828.672-1.5 1.5-1.5s1.5.672 1.5 1.5v134.388c0 5.135 4.178 9.312 9.313 9.312h143.059c5.136 0 9.313-4.178 9.313-9.312v-176.416c0-5.136-4.178-9.313-9.313-9.313h-143.059c-5.135 0-9.313 4.178-9.313 9.313v29.066c0 .828-.672 1.5-1.5 1.5s-1.5-.672-1.5-1.5v-29.066c0-6.79 5.523-12.313 12.313-12.313h143.059c6.79 0 12.313 5.523 12.313 12.313v176.416c0 6.789-5.523 12.312-12.313 12.312z" fill="#3a312a"/><path d="m226.207 26.073s3.41 12.659 13.229 13.246c0 0-13.107 4.525-13.328 14.202 0 0-2.58-13.572-12.932-14.059 0 0 12.057-1.826 13.031-13.389z" fill="#d6df58"/><path d="m226.106 55.021c-.713 0-1.335-.506-1.473-1.217-.023-.125-2.495-12.418-11.528-12.844-.77-.036-1.388-.65-1.428-1.421-.04-.77.511-1.444 1.273-1.561.441-.068 10.9-1.816 11.761-12.032.062-.726.635-1.301 1.359-1.367.734-.056 1.393.399 1.584 1.102.031.116 3.261 11.626 11.87 12.142.714.043 1.298.584 1.395 1.292.098.709-.319 1.388-.994 1.622-.122.043-12.125 4.311-12.319 12.819-.018.767-.61 1.396-1.375 1.46-.041.003-.083.005-.125.005zm-7.745-15.73c3.88 1.97 6.233 5.747 7.591 8.878 2.027-4.022 5.945-6.788 8.954-8.429-4.137-1.843-6.787-5.652-8.339-8.724-1.794 4.361-5.273 6.87-8.206 8.275z" fill="#3a312a"/><path d="m204.497 43.053s2.412 8.954 9.357 9.369c0 0-9.271 3.201-9.427 10.045 0 0-1.825-9.6-9.147-9.944 0 0 8.528-1.291 9.217-9.47z" fill="#d6df58"/><path d="m204.426 63.968c-.714 0-1.337-.507-1.473-1.22-.016-.082-1.705-8.442-7.743-8.727-.771-.036-1.388-.65-1.428-1.421-.04-.77.511-1.444 1.273-1.561.296-.047 7.367-1.242 7.946-8.113.062-.726.636-1.303 1.361-1.368.719-.058 1.392.399 1.581 1.102.022.079 2.229 7.92 7.999 8.265.714.042 1.299.584 1.396 1.293s-.32 1.389-.997 1.622c-.08.028-8.286 2.953-8.416 8.662-.018.768-.611 1.397-1.376 1.461-.04.003-.082.005-.123.005zm-4.522-11.528c2.108 1.333 3.525 3.395 4.449 5.28 1.377-2.232 3.518-3.873 5.368-4.974-2.288-1.27-3.887-3.351-4.944-5.225-1.173 2.289-3.016 3.878-4.873 4.919z" fill="#3a312a"/><path d="m204.497 16.395s2.412 8.954 9.357 9.37c0 0-9.271 3.201-9.427 10.045 0 0-1.825-9.6-9.147-9.944 0 0 8.528-1.291 9.217-9.471z" fill="#d6df58"/><path d="m204.426 37.311c-.714 0-1.337-.507-1.473-1.22-.016-.082-1.705-8.442-7.743-8.727-.771-.036-1.388-.65-1.428-1.421-.04-.77.511-1.444 1.273-1.561.296-.047 7.367-1.243 7.946-8.113.062-.726.636-1.303 1.361-1.368.719-.057 1.392.4 1.581 1.101.022.079 2.229 7.92 7.999 8.265.714.042 1.299.584 1.396 1.293s-.32 1.389-.997 1.622c-.08.028-8.286 2.953-8.416 8.662-.018.768-.611 1.397-1.376 1.461-.04.004-.082.006-.123.006zm-4.522-11.528c2.108 1.333 3.525 3.395 4.449 5.28 1.377-2.232 3.518-3.873 5.368-4.974-2.288-1.27-3.887-3.351-4.944-5.225-1.173 2.288-3.016 3.877-4.873 4.919z" fill="#3a312a"/><path d="m127.325 30.512h-13.786c-.341-7.879-6.817-14.167-14.78-14.167s-14.439 6.288-14.78 14.167h-13.786c-2.668 0-4.831 2.163-4.831 4.831v13.338c0 2.668 2.163 4.831 4.831 4.831h57.132c2.668 0 4.831-2.163 4.831-4.831v-13.338c0-2.668-2.163-4.831-4.831-4.831zm-28.566 4.333c-2.715 0-4.917-2.201-4.917-4.917 0-2.715 2.201-4.917 4.917-4.917 2.715 0 4.917 2.201 4.917 4.917-.001 2.716-2.202 4.917-4.917 4.917z" fill="#87796f"/><path d="m127.324 55.012h-57.132c-3.491 0-6.331-2.84-6.331-6.331v-13.338c0-3.491 2.84-6.331 6.331-6.331h12.412c1.051-8.052 7.889-14.166 16.154-14.166s15.104 6.114 16.154 14.166h12.411c3.491 0 6.331 2.84 6.331 6.331v13.338c.001 3.491-2.839 6.331-6.33 6.331zm-57.132-23c-1.837 0-3.331 1.494-3.331 3.331v13.338c0 1.837 1.494 3.331 3.331 3.331h57.132c1.837 0 3.331-1.494 3.331-3.331v-13.338c0-1.837-1.494-3.331-3.331-3.331h-13.785c-.803 0-1.464-.633-1.499-1.435-.309-7.139-6.143-12.731-13.281-12.731-7.139 0-12.973 5.592-13.281 12.731-.035.803-.696 1.435-1.499 1.435zm28.567 4.334c-3.538 0-6.417-2.879-6.417-6.417s2.879-6.417 6.417-6.417 6.416 2.879 6.416 6.417-2.878 6.417-6.416 6.417zm0-9.834c-1.884 0-3.417 1.533-3.417 3.417s1.533 3.417 3.417 3.417 3.416-1.533 3.416-3.417-1.532-3.417-3.416-3.417z" fill="#3a312a"/><path d="m48.747 69.668h99.775v29.078h-99.775z" fill="#d4d853"/><g fill="#3a312a"><path d="m148.523 100.246h-99.776c-.828 0-1.5-.672-1.5-1.5v-29.078c0-.828.672-1.5 1.5-1.5h99.775c.828 0 1.5.672 1.5 1.5v29.078c.001.828-.671 1.5-1.499 1.5zm-98.276-3h96.775v-26.078h-96.775z"/><path d="m148.523 124.473h-99.776c-.828 0-1.5-.672-1.5-1.5s.672-1.5 1.5-1.5h99.775c.828 0 1.5.672 1.5 1.5.001.828-.671 1.5-1.499 1.5z"/><path d="m148.523 147.097h-99.776c-.828 0-1.5-.672-1.5-1.5s.672-1.5 1.5-1.5h99.775c.828 0 1.5.672 1.5 1.5.001.828-.671 1.5-1.499 1.5z"/><path d="m148.523 169.72h-99.776c-.828 0-1.5-.672-1.5-1.5s.672-1.5 1.5-1.5h99.775c.828 0 1.5.672 1.5 1.5.001.828-.671 1.5-1.499 1.5z"/><path d="m148.523 192.343h-99.776c-.828 0-1.5-.672-1.5-1.5s.672-1.5 1.5-1.5h99.775c.828 0 1.5.672 1.5 1.5.001.828-.671 1.5-1.499 1.5z"/><path d="m148.523 214.967h-99.776c-.828 0-1.5-.672-1.5-1.5s.672-1.5 1.5-1.5h99.775c.828 0 1.5.672 1.5 1.5.001.828-.671 1.5-1.499 1.5z"/></g><path d="m151.646 130.231c-5.441 7.807-8.641 17.292-8.641 27.53 0 26.629 21.587 48.215 48.215 48.215s48.215-21.587 48.215-48.215-21.587-48.215-48.215-48.215c-11.314 0-21.71 3.908-29.935 10.433z" fill="#ef6d7a"/><path d="m191.221 207.476c-27.413 0-49.716-22.302-49.716-49.715 0-10.207 3.081-20.023 8.911-28.387.473-.683 1.41-.849 2.088-.373.68.474.847 1.408.373 2.088-5.477 7.858-8.372 17.081-8.372 26.672 0 25.759 20.957 46.715 46.716 46.715s46.715-20.956 46.715-46.715-20.956-46.716-46.715-46.716c-10.638 0-20.667 3.495-29.003 10.107-.651.515-1.594.406-2.107-.242-.516-.65-.406-1.593.242-2.108 8.873-7.038 19.547-10.758 30.868-10.758 27.413 0 49.715 22.303 49.715 49.716 0 27.414-22.302 49.716-49.715 49.716z" fill="#3a312a"/><path d="m225.281 147.453v.057c0 2.433-1.972 4.405-4.405 4.405h-7.16l-.004.004h5.013c2.433 0 4.405 1.972 4.405 4.405v.057c0 2.433-1.972 4.405-4.405 4.405h-3.013c2.433 0 4.405 1.972 4.405 4.405v.057c0 2.433-1.972 4.405-4.405 4.405h-3.012c2.433 0 4.405 1.972 4.405 4.405v.057c0 2.433-1.972 4.405-4.405 4.405h-15.141c-.053 0-.102-.004-.155-.004-6.511-.041-12.994-.865-19.305-2.47l-1.302-.331c0-.082.004-.163.004-.249v-28.078c0-.192-.012-.38-.037-.563l6.025-2.053c3.025-1.029 5.058-3.87 5.058-7.062v-7.748c0-1.715.694-3.266 1.817-4.393 1.122-1.123 2.674-1.817 4.388-1.817 3.425 0 6.205 2.78 6.205 6.209v10.014c0 1.698 1.376 3.074 3.074 3.074h17.546c2.433-.001 4.404 1.971 4.404 4.404z" fill="#f8e4c8"/><path d="m212.7 180.02h-15.142c-.02 0-.115-.002-.135-.003-6.675-.043-13.291-.89-19.694-2.518l-1.302-.33c-.666-.169-1.132-.768-1.132-1.454l.002-.157.002-28.17c0-.125-.007-.247-.023-.366-.094-.709.326-1.387 1.004-1.617l6.025-2.053c2.417-.822 4.041-3.09 4.041-5.643v-7.749c0-2.056.8-3.991 2.254-5.451 1.458-1.457 3.393-2.258 5.451-2.258 4.249 0 7.705 3.458 7.705 7.709v10.015c0 .867.706 1.573 1.574 1.573h17.546c3.256 0 5.904 2.649 5.904 5.905v.057c0 2.326-1.352 4.342-3.311 5.305.729.981 1.159 2.196 1.159 3.51 0 2.626-1.664 4.835-3.976 5.638.608.929.963 2.038.963 3.229 0 2.626-1.664 4.835-3.976 5.638.608.929.963 2.039.963 3.23.003 3.31-2.646 5.96-5.902 5.96zm-34.4-5.471.167.042c6.17 1.568 12.544 2.385 18.946 2.425.016 0 .11.003.126.003l15.161.001c1.602 0 2.904-1.304 2.904-2.905 0-1.658-1.303-2.962-2.904-2.962-.828 0-1.5-.672-1.5-1.5s.672-1.5 1.5-1.5h3.013c1.602 0 2.904-1.303 2.904-2.904 0-1.659-1.303-2.962-2.904-2.962-.828 0-1.5-.672-1.5-1.5s.672-1.5 1.5-1.5h3.013c1.602 0 2.904-1.304 2.904-2.905 0-1.658-1.303-2.962-2.904-2.962h-5.014c-.606 0-1.153-.365-1.386-.926-.232-.561-.104-1.206.325-1.635.281-.281.667-.443 1.064-.443h7.161c1.602 0 2.904-1.304 2.904-2.905v-.057c0-1.602-1.303-2.905-2.904-2.905h-17.546c-2.523 0-4.574-2.052-4.574-4.573v-10.016c0-2.597-2.11-4.709-4.705-4.709-1.257 0-2.439.489-3.328 1.378-.887.891-1.377 2.074-1.377 3.331v7.749c0 3.837-2.441 7.246-6.074 8.482l-4.973 1.694v26.664z" fill="#3a312a"/><path d="m176.802 156.548v-9.161c0-2.56-2.075-4.634-4.634-4.634h-10.637v37.345h10.637c2.559 0 4.634-2.075 4.634-4.634v-10.379z" fill="#87796f"/><path d="m172.168 181.599h-10.637c-.828 0-1.5-.672-1.5-1.5v-37.346c0-.828.672-1.5 1.5-1.5h10.637c3.382 0 6.134 2.752 6.134 6.134v28.077c0 3.383-2.752 6.135-6.134 6.135zm-9.137-3h9.137c1.727 0 3.134-1.406 3.134-3.135v-28.077c0-1.728-1.406-3.134-3.134-3.134h-9.137z" fill="#3a312a"/><path d="m172.662 172.353c0 1.931-1.565 3.496-3.496 3.496s-3.496-1.565-3.496-3.496c0-1.93 1.565-3.495 3.496-3.495s3.496 1.565 3.496 3.495z" fill="#d5de58"/><path d="m169.166 177.349c-2.754 0-4.995-2.241-4.995-4.995 0-2.755 2.241-4.996 4.995-4.996 2.755 0 4.996 2.241 4.996 4.996 0 2.753-2.241 4.995-4.996 4.995zm0-6.992c-1.101 0-1.995.895-1.995 1.996s.895 1.995 1.995 1.995 1.996-.895 1.996-1.995-.895-1.996-1.996-1.996z" fill="#3a312a"/><path d="m191.217 111.043c-2.89 0-5.75.26-8.53.77 16.32 3 29.7 14.51 35.35 29.74h2.84c3.26 0 5.9 2.64 5.9 5.9v.06c0 2.32-1.35 4.34-3.31 5.3.73.98 1.16 2.2 1.16 3.51 0 2.59-1.62 4.78-3.88 5.6-.03.02-.06.03-.09.04.03.04.05.08.08.13.56.9.88 1.96.88 3.1 0 1.93-.9 3.63-2.29 4.72-.5.4-1.07.71-1.68.92.38.58.66 1.24.81 1.94.1.41.15.84.15 1.28 0 2.19-1.15 4.09-2.88 5.13-6.53 12.6-18.62 21.86-33.01 24.51 2.76.51 5.6.78 8.5.78 25.76 0 46.72-20.95 46.72-46.71s-20.96-46.72-46.72-46.72z" fill="#d24e5c"/><path d="m217.646 170.833c.38.58.66 1.24.81 1.94.33-.94.62-1.89.87-2.86-.499.4-1.069.71-1.68.92zm3.01-8.87c.03.04.05.08.08.13.01-.06.01-.11.01-.17-.029.02-.06.03-.09.04z" fill="#d24e5c"/></g></svg>