<?xml version="1.0" encoding="iso-8859-1"?>
<!-- Generator: Adobe Illustrator 21.0.0, SVG Export Plug-In . SVG Version: 6.00 Build 0)  -->
<svg version="1.1" id="Capa_1" xmlns="http://www.w3.org/2000/svg" xmlns:xlink="http://www.w3.org/1999/xlink" x="0px" y="0px"
	 viewBox="0 0 464 464" style="enable-background:new 0 0 464 464;" xml:space="preserve">
<g>
	<g>
		<polygon points="64,400 64,424 192,424 208,424 208,400 		"/>
	</g>
</g>
<g id="SVGCleanerId_0">
	<g>
		<path d="M168,176c-35.346,0-64,28.654-64,64c0,35.346,28.654,64,64,64c35.346,0,64-28.654,64-64
			C231.96,204.67,203.33,176.04,168,176z M192,216h-24c-4.418,0-8,3.582-8,8s3.582,8,8,8c13.224-0.025,23.964,10.675,23.989,23.898
			c0.019,10.174-6.393,19.25-15.989,22.63V288h-16v-8h-16v-16h24c4.418,0,8-3.582,8-8s-3.582-8-8-8
			c-13.224,0.025-23.964-10.675-23.989-23.899c-0.019-10.174,6.393-19.249,15.989-22.629V192h16v8h16V216z"/>
	</g>
</g>
<g>
	<g>
		<polygon points="64,320 64,344 192,344 208,344 208,320 		"/>
	</g>
</g>
<g>
	<g>
		<path d="M280,400v56c0,4.418,3.582,8,8,8h72v-64H280z M342.624,444.28l-11.312,11.312L320,444.28l-11.312,11.312l-11.312-11.312
			l11.312-11.312l-11.312-11.312l11.312-11.312L320,421.656l11.312-11.312l11.312,11.312l-11.312,11.312L342.624,444.28z"/>
	</g>
</g>
<g id="SVGCleanerId_1">
	<g>
		<rect x="40" y="440" width="144" height="24"/>
	</g>
</g>
<g>
	<g>
		<polygon points="40,360 40,384 56,384 184,384 184,360 		"/>
	</g>
</g>
<g>
	<g>
		<polygon points="19.312,80 72,80 72,27.312 		"/>
	</g>
</g>
<g>
	<g>
		<path d="M280,320v64h80v-64H280z M344,360h-16v16h-16v-16h-16v-16h16v-16h16v16h16V360z"/>
	</g>
</g>
<g>
	<g>
		<path d="M376,400v64h72c4.418,0,8-3.582,8-8v-56H376z M408,412h16v8h-16V412z M424,452h-16v-8h16V452z M440,440h-48v-16h48V440z"
			/>
	</g>
</g>
<g>
	<g>
		<path d="M448,224H288c-4.418,0-8,3.582-8,8v72h176v-72C456,227.582,452.418,224,448,224z M440,280c0,4.418-3.582,8-8,8H304
			c-4.418,0-8-3.582-8-8v-32c0-4.418,3.582-8,8-8h128c4.418,0,8,3.582,8,8V280z"/>
	</g>
</g>
<g>
	<g>
		<rect x="312" y="256" width="112" height="16"/>
	</g>
</g>
<g>
	<g>
		<path d="M376,320v64h80v-64H376z M440,360h-48v-16h48V360z"/>
	</g>
</g>
<g>
	<g>
		<polygon points="64,320 64,344 192,344 208,344 208,320 		"/>
	</g>
</g>
<g>
	<g>
		<polygon points="19.312,80 72,80 72,27.312 		"/>
	</g>
</g>
<g>
	<g>
		<polygon points="40,360 40,384 56,384 184,384 184,360 		"/>
	</g>
</g>
<g>
	<g>
		<rect x="40" y="440" width="144" height="24"/>
	</g>
</g>
<g>
	<g>
		<polygon points="64,400 64,424 192,424 208,424 208,400 		"/>
	</g>
</g>
<g>
	<g>
		<path d="M168,176c-35.346,0-64,28.654-64,64c0,35.346,28.654,64,64,64c35.346,0,64-28.654,64-64
			C231.96,204.67,203.33,176.04,168,176z M192,216h-24c-4.418,0-8,3.582-8,8s3.582,8,8,8c13.224-0.025,23.964,10.675,23.989,23.898
			c0.019,10.174-6.393,19.25-15.989,22.63V288h-16v-8h-16v-16h24c4.418,0,8-3.582,8-8s-3.582-8-8-8
			c-13.224,0.025-23.964-10.675-23.989-23.899c-0.019-10.174,6.393-19.249,15.989-22.629V192h16v8h16V216z"/>
	</g>
</g>
<g id="SVGCleanerId_2">
	<g>
		<path d="M88,16v64c0,8.837-7.163,16-16,16H8v368h16v-32c0-4.418,3.582-8,8-8h16v-24H32c-4.418,0-8-3.582-8-8v-40
			c0-4.418,3.582-8,8-8h16v-32c0-4.418,3.582-8,8-8h64.208c-35.432-26.395-42.758-76.515-16.363-111.948
			c26.395-35.432,76.515-42.758,111.947-16.363c35.432,26.395,42.758,76.515,16.364,111.948
			c-4.633,6.219-10.145,11.731-16.364,16.363H216c4.418,0,8,3.582,8,8v40c0,4.418-3.582,8-8,8h-16v24h16c4.418,0,8,3.582,8,8v40
			c0,4.418-3.582,8-8,8h-16v24h64V232c0-13.255,10.745-24,24-24h40V16H88z M112,64h136v16H112V64z M120,160H24v-16h96V160z M296,160
			h-72v-16h72V160z M296,128H24v-16h272V128z"/>
	</g>
</g>
<g>
	<g>
		<path d="M88,16v64c0,8.837-7.163,16-16,16H8v368h16v-32c0-4.418,3.582-8,8-8h16v-24H32c-4.418,0-8-3.582-8-8v-40
			c0-4.418,3.582-8,8-8h16v-32c0-4.418,3.582-8,8-8h64.208c-35.432-26.395-42.758-76.515-16.363-111.948
			c26.395-35.432,76.515-42.758,111.947-16.363c35.432,26.395,42.758,76.515,16.364,111.948
			c-4.633,6.219-10.145,11.731-16.364,16.363H216c4.418,0,8,3.582,8,8v40c0,4.418-3.582,8-8,8h-16v24h16c4.418,0,8,3.582,8,8v40
			c0,4.418-3.582,8-8,8h-16v24h64V232c0-13.255,10.745-24,24-24h40V16H88z M112,64h136v16H112V64z M120,160H24v-16h96V160z M296,160
			h-72v-16h72V160z M296,128H24v-16h272V128z"/>
	</g>
</g>
<g>
	<g>
		<path d="M440,40h-16c0-4.418-3.582-8-8-8h-8V8c0-4.418-3.582-8-8-8h-32c-4.418,0-8,3.582-8,8v24h-8c-4.418,0-8,3.582-8,8v152h80
			V56h16v104h16V56C456,47.163,448.837,40,440,40z"/>
	</g>
</g>
<g>
</g>
<g>
</g>
<g>
</g>
<g>
</g>
<g>
</g>
<g>
</g>
<g>
</g>
<g>
</g>
<g>
</g>
<g>
</g>
<g>
</g>
<g>
</g>
<g>
</g>
<g>
</g>
<g>
</g>
</svg>
